<svg width="56" height="38" viewBox="0 0 56 38" fill="none" xmlns="http://www.w3.org/2000/svg">
<g clip-path="url(#clip0_135_3258)">
<path d="M52.5 1.1875C52.5 1.84334 53.0223 2.375 53.6667 2.375H54.8333C55.4777 2.375 56 1.84334 56 1.1875C56 0.531663 55.4777 0 54.8333 0H53.6667C53.0223 0 52.5 0.531663 52.5 1.1875Z" fill="#212326"/>
<path d="M18.6667 38H24.3341L22.6842 36.3206C22.2467 35.8752 21.6531 35.625 21.0343 35.625H18.6667C9.646 35.625 2.33333 28.1817 2.33333 19C2.33333 9.81825 9.646 2.37501 18.6667 2.375H37.3333C46.354 2.375 53.6667 9.81825 53.6667 19C53.6667 28.1817 46.354 35.625 37.3333 35.625H30.3505C29.4222 35.625 28.532 35.2497 27.8756 34.5816L25.9427 32.6141C24.8487 31.5006 23.3649 30.875 21.8178 30.875H18.6667C12.2233 30.875 7 25.5584 7 19C7 12.4416 12.2233 7.125 18.6667 7.125H37.3333C43.7767 7.125 49 12.4416 49 19C49 25.5584 43.7767 30.875 37.3333 30.875H32.8497C31.9214 30.875 31.0312 30.4997 30.3748 29.8316L28.4417 27.8641C27.3478 26.7506 25.8641 26.125 24.317 26.125H18.6667C14.8007 26.125 11.6667 22.935 11.6667 19C11.6667 15.065 14.8007 11.875 18.6667 11.875H37.3333C41.1993 11.875 44.3333 15.065 44.3333 19C44.3333 22.887 41.2753 26.0471 37.4745 26.1236L37.4737 26.125H35.7664C34.8381 26.125 33.9479 25.7497 33.2914 25.0816L31.3584 23.1141C30.4608 22.2004 29.3008 21.6153 28.0586 21.4347L28 21.375H18.6667C17.378 21.375 16.3333 20.3117 16.3333 19C16.3333 17.6883 17.378 16.625 18.6667 16.625H37.3333C38.622 16.625 39.6667 17.6883 39.6667 19C39.6667 20.3117 38.622 21.375 37.3333 21.375H32.6667L34.3166 23.0544C34.7542 23.4998 35.3477 23.75 35.9665 23.75H37.3333C39.9106 23.75 42 21.6233 42 19C42 16.3767 39.9106 14.25 37.3333 14.25H18.6667C16.0894 14.25 14 16.3767 14 19C14 21.6233 16.0894 23.75 18.6667 23.75H27.2336C28.1619 23.75 29.0521 24.1253 29.7086 24.7934L31.6416 26.7609C32.7355 27.8744 34.2193 28.5 35.7664 28.5H37.9167V28.4818C42.7996 28.1753 46.6667 24.0473 46.6667 19C46.6667 13.7533 42.4879 9.5 37.3333 9.5H18.6667C13.5121 9.5 9.33333 13.7533 9.33333 19C9.33333 24.2468 13.5121 28.5 18.6667 28.5H24.317C25.2453 28.5 26.1355 28.8753 26.7919 29.5434L28.7249 31.5109C29.8189 32.6244 31.3026 33.25 32.8497 33.25H37.3333C45.0653 33.25 51.3333 26.8701 51.3333 19C51.3333 11.1299 45.0653 4.75 37.3333 4.75H18.6667C10.9347 4.75 4.66667 11.1299 4.66667 19C4.66667 26.8701 10.9347 33.25 18.6667 33.25H21.8178C22.7461 33.25 23.6363 33.6253 24.2927 34.2934L26.2257 36.2609C27.3197 37.3744 28.8034 38 30.3505 38H37.3333C47.6427 38 56 29.4934 56 19C56 8.50659 47.6427 -9.17363e-07 37.3333 0L18.6667 3.92601e-06C8.35735 4.84338e-06 -9.01269e-07 8.50659 0 19C9.01269e-07 29.4934 8.35736 38 18.6667 38Z" fill="#212326"/>
</g>
<defs>
<clipPath id="clip0_135_3258">
<rect width="56" height="38" fill="white"/>
</clipPath>
</defs>
</svg>
